<svg xmlns="http://www.w3.org/2000/svg" width="256" height="256"><path fill="#1976D2" fill-opacity=".016" fill-rule="evenodd" d="M0 128.004v128.004l128.25-.254 128.25-.254.254-127.75L257.008 0H0v128.004m.485.496c0 70.4.119 99.053.265 63.672.146-35.38.146-92.98 0-128C.604 29.153.485 58.1.485 128.5"/><path fill="#1976D2" fill-opacity=".199" fill-rule="evenodd" d="M209.485 2.093c-4.045 2.124-7.779 5.734-14.985 14.489-2.2 2.673-8.176 9.823-13.281 15.889-5.105 6.066-9.686 11.539-10.18 12.162-.494.623-1.371 2.885-1.947 5.027-.801 2.975-4.191 7.133-14.358 17.617C147.414 74.825 140.743 81 139.908 81c-.834 0-3.517-1.248-5.962-2.774-9.542-5.954-18.921-8.709-26.447-7.769-11.515 1.439-23.612 10.447-30.221 22.503-1.971 3.597-4.966 8.015-6.654 9.817C67.527 106.084 60.208 109 55.007 109c-4.731 0-17.38 3.84-23.507 7.136-7.439 4.001-19.07 15.506-23.238 22.983-9.848 17.671-9.872 40.905-.061 59.969 2.554 4.965 7.361 10.55 21.299 24.748 19.453 19.816 26.671 25.383 38.31 29.548 6.52 2.334 8.774 2.616 20.879 2.616 11.945 0 14.395-.298 20.473-2.49 8.521-3.074 15.938-7.752 21.838-13.773 11.049-11.277 15.529-20.713 18.445-38.851 1.774-11.037 5.702-16.414 14.755-20.196 5.126-2.142 15.876-12.681 19.204-18.827 2.194-4.05 3.021-7.128 3.379-12.573.595-9.037-.685-14.174-5.768-23.144-2.208-3.897-4.015-7.765-4.015-8.596 0-.832 5.864-7.376 13.031-14.543 10.975-10.975 13.744-13.222 17.552-14.241 3.391-.906 7.447-3.73 16.219-11.29 6.434-5.545 12.598-10.81 13.698-11.7 11.481-9.286 14.782-12.301 15.722-14.363.604-1.327 1.477-2.413 1.939-2.413.461 0 .839-3.805.839-8.456 0-10.275-.392-10.953-14.536-25.176C226.626.448 218.803-2.8 209.485 2.093m-.44 7.523c-1.71 1.439-10.093 10.946-18.629 21.127-13.409 15.993-15.442 18.868-14.949 21.134.514 2.367-2.479 5.661-30.699 33.778-30.351 30.241-31.437 31.202-37.014 32.776-18.157 5.126-23.715 27.26-10.396 41.407 5.265 5.593 10.155 7.624 18.142 7.538 11.799-.128 19.763-6.064 23.862-17.786 2.358-6.744 2.763-7.203 33.051-37.503 28.901-28.912 30.849-30.656 33.876-30.318 2.527.282 4.063-.383 7.211-3.121 2.2-1.914 10.975-9.416 19.5-16.67 8.525-7.255 16.042-14.38 16.705-15.834 1.511-3.315 1.611-8.167.244-11.829-1.215-3.256-21.137-23.76-25.149-25.885-1.486-.787-4.939-1.43-7.674-1.43-3.904 0-5.641.562-8.081 2.616m-7.912 23.079c-12.96 15.23-14.15 16.953-13.56 19.635.612 2.789-1.057 4.644-32.44 36.055-18.929 18.947-32.761 33.543-32.327 34.115.417.55 3.562 3.692 6.989 6.981l6.231 5.982 32.887-32.876c31.195-31.185 33.042-32.846 35.881-32.278 2.726.545 4.516-.695 20.1-13.921C234.639 48.117 242 41.137 242 40.168 242 37.682 219.934 16 217.404 16c-1.437 0-6.386 5.078-16.271 16.695m11.617-4.246c-7.714 8.499-17.748 21.745-17.772 23.46-.057 4.106-4.64 10.605-15.625 22.153-12.008 12.624-16.382 17.927-16.727 20.28-.102.698-1.18 2.337-2.396 3.641-1.215 1.304-1.964 2.616-1.665 2.915.299.299.857.106 1.239-.429.383-.535 2.496-2.495 4.696-4.357 2.2-1.861 10.554-9.782 18.564-17.602 12.281-11.988 15.181-14.33 18.5-14.937 3.598-.658 8.595-3.015 11.703-5.519C223.532 49.778 234 40.414 234 39.505c0-1.071-15.318-16.639-16.135-16.397-.201.059-2.502 2.463-5.115 5.341M105.147 75.075c-2.395.471-6.272 1.98-8.617 3.355-5.175 3.032-14.167 12.668-16.355 17.526-2.305 5.115-7.87 11.835-11.246 13.581-1.602.828-6.854 2.183-11.671 3.01-18.047 3.1-27.173 7.346-36.785 17.112-8.728 8.869-14.202 21.191-15.92 35.841-1.316 11.221 4.738 29.772 13.217 40.5 7.271 9.2 34.194 34.883 40.347 38.489 14.426 8.455 31.413 10.599 46.831 5.911 22.946-6.977 38.046-26.255 40.367-51.537.884-9.628 6.201-16.683 16.103-21.368 6.586-3.115 14.238-10.275 18.162-16.995 2.64-4.521 2.92-5.863 2.92-14 0-8.252-.279-9.54-3.353-15.5-1.845-3.575-4.115-7.296-5.046-8.268-1.612-1.684-1.829-1.625-4.584 1.251l-2.892 3.018 2.026 2.75c2.721 3.691 6.349 13.604 6.349 17.348 0 4.623-4.658 13.453-9.106 17.26-2.192 1.876-6.721 4.869-10.065 6.652-7.56 4.029-13.4 9.775-16.1 15.84-1.139 2.557-2.631 8.937-3.316 14.178-3.77 28.854-26.852 46.937-54.927 43.032-7.528-1.047-17.84-5.019-22.629-8.717-1.296-1.001-10.043-9.476-19.438-18.832-14.502-14.444-17.626-18.102-20.693-24.23-7.137-14.26-7.65-30.34-1.392-43.545 7.743-16.338 21.067-25.511 40.212-27.687 14.48-1.645 22.83-7.463 30.032-20.925 1.582-2.956 4.858-7.329 7.281-9.717 8.648-8.527 17.818-9.5 29.905-3.173l6.736 3.526 2.758-3.015c3.233-3.534 3.016-3.833-6.305-8.683-4.533-2.359-15.54-5.407-17.887-4.953-.311.06-2.525.494-4.919.965m-1.978 13.963c-5.101 3.111-7.546 5.805-12.671 13.962-9.337 14.864-17.145 20.257-31.729 21.914-33.303 3.784-51.032 35.316-36.658 65.198 2.541 5.283 6.214 9.527 21.231 24.53C57.887 229.174 62.793 233.443 68 236.097c6.356 3.24 6.788 3.314 19.5 3.349 12.557.034 13.221-.072 19.5-3.102 8.505-4.105 17.955-13.674 21.538-21.81 1.728-3.923 2.981-9.231 3.659-15.5 1.589-14.694 6.44-21.768 22.231-32.415 10.548-7.112 13.547-10.394 15.152-16.581 1.099-4.238 1.092-5.717-.047-8.944-2.179-6.177-4.479-10.094-5.926-10.094-2.119 0-16.023 15.137-17.459 19.006-3.977 10.722-8.786 16.555-17.198 20.86-5.221 2.673-7.205 3.134-13.477 3.134-4.045 0-7.597-.392-7.893-.871-.296-.479-1.825-1.128-3.397-1.442-4.902-.981-13.716-9.033-16.811-15.359-2.396-4.897-2.78-6.882-2.757-14.258.02-6.454.532-9.681 2.071-13.07 3.008-6.623 10.534-13.144 18.834-16.32 6.108-2.337 7.894-3.67 14.292-10.671 4.098-4.484 7.011-8.486 6.627-9.107-.376-.609-2.991-2.182-5.812-3.495-6.415-2.987-12.937-3.125-17.458-.369m42.733 20.417c-13.118 10.584-14.624 12.363-11.893 14.051 2.076 1.283 5.097-.825 11.609-8.101 4.498-5.026 6.369-7.818 5.693-8.494-.676-.676-2.454.16-5.409 2.544m-39.649 19.795c-4.138 2.892-6.253 7.357-6.253 13.201 0 8.016 3.509 12.623 11.176 14.674 8.223 2.199 17.441-2.478 19.273-9.779.6-2.388-.292-3.654-8.117-11.515-5.31-5.335-9.596-8.831-10.825-8.831-1.119 0-3.484 1.012-5.254 2.25m1.402 7.579c-1.952 2.157-2.182 8.093-.405 10.437 2.313 3.049 6.692 4.65 9.775 3.575 3.692-1.287 4.336-3.278 2.387-7.385-3.609-7.605-8.418-10.316-11.757-6.627M52 154c-1.234 1.234-2 3.333-2 5.482 0 3.196 1.745 5.238 21.25 24.864 11.688 11.76 22.304 21.932 23.593 22.603 5.159 2.688 11.157-1.156 11.157-7.15 0-3.748-.817-4.696-22.25-25.807-20.922-20.608-22.474-21.918-26-21.954-2.455-.025-4.441.653-5.75 1.962m3.25 1.662c-.687.278-1.25 1.709-1.25 3.18 0 2.151 4.171 6.843 21.259 23.917C86.951 194.441 97.211 204 98.059 204c2.161 0 3.941-2.024 3.941-4.481 0-2.445-41.754-44.566-44.053-44.44-.796.043-2.009.306-2.697.583"/><path fill="#1976D2" fill-opacity=".085" fill-rule="evenodd" d="M210 2.507c-5.287 2.698-7.452 4.935-24.71 25.532C172.446 43.367 169.867 47.086 168.673 52c-.361 1.486-12.126 13.937-29.012 30.703-26.787 26.596-28.786 28.355-35.101 30.883-12.515 5.011-19.738 14.887-19.931 27.255-.168 10.723 1.772 15.685 8.947 22.892 3.413 3.428 7.492 6.728 9.065 7.332 8.184 3.146 19.449 2.884 26.843-.625 6.731-3.194 13.504-11.814 16.561-21.077 1.4-4.24 16.344-19.811 18.296-19.063 2.185.839 6.659 11.372 6.659 15.677 0 7.95-4.029 13.104-17 21.75-15.051 10.033-18.963 15.584-20.926 29.697-2.389 17.179-4.526 21.887-14.056 30.977-7.061 6.736-13.781 9.996-24.08 11.686-9.692 1.589-22.471-.464-29.708-4.773-2.6-1.548-12.424-10.464-21.832-19.814-23.595-23.45-27.498-31.129-26.074-51.3.753-10.669 4.651-19.183 12.176-26.594 6.053-5.962 17.039-11.433 24.571-12.237 6.046-.646 16.368-3.51 20.678-5.739 1.547-.8 4.825-3.702 7.282-6.447 5.955-6.653 6.489-7.354 8.381-11.013 2.218-4.288 7.293-9.937 11.988-13.342 5.409-3.922 11.162-3.845 18.938.253 6.239 3.289 8.952 3.466 3.455.226-14.635-8.625-26.72-4.247-36.292 13.146-4.139 7.522-9.762 13.86-13.289 14.98-1.217.386-2.212 1.063-2.212 1.504 0 1.166-7.263 2.911-16.815 4.04-17.406 2.058-30.835 12.048-38.341 28.523-1.958 4.298-2.282 6.686-2.311 17-.029 10.48.277 12.76 2.416 18 3.488 8.546 6.362 12.196 22.348 28.38 17.837 18.059 20.611 20.319 29.664 24.171 12.516 5.326 27.105 5.114 38.879-.567 15.223-7.343 24.176-20.967 26.131-39.758 1.52-14.616 6.698-22.066 20.734-29.83 17.018-9.415 21.17-21.627 12.269-36.093l-2.979-4.842 4.13-4.48c2.271-2.465 4.511-4.481 4.977-4.481.466 0 1.592 1.44 2.502 3.201.91 1.761 2.197 3.743 2.859 4.405.662.661 1.968 3.833 2.903 7.049.934 3.215 2.141 7.245 2.681 8.957 1.211 3.835-1.133 13.935-4.615 19.888-3.401 5.814-11.049 12.856-17.932 16.51-10.954 5.815-14.257 10.412-15.644 21.771-1.872 15.33-7.922 28.215-17.644 37.58-6.718 6.47-11.588 9.506-20.712 12.91-6.971 2.602-9.414 3.001-19 3.103-9.583.102-12.095-.246-19.5-2.704-12.239-4.063-19.419-9.436-38.614-28.896-17.664-17.906-21.077-22.595-25.679-35.274-1.797-4.95-2.181-8.187-2.193-18.5-.013-11.235.266-13.244 2.753-19.855 8.292-22.048 25.638-35.176 50.531-38.244 11.656-1.437 17.11-5.564 22.317-16.888 3.822-8.312 15.17-18.049 23.471-20.139 6.911-1.74 18.375-.643 24.391 2.334 3.823 1.892 4.691 2.083 3.503.77-.869-.96-3.695-2.315-6.28-3.009-2.585-.695-5.128-1.648-5.65-2.116-1.826-1.639-12.742-.89-18.7 1.282-8.094 2.951-17.542 11.75-22.753 21.189-2.193 3.974-5.062 8.234-6.375 9.467C67.565 106.758 58.14 110 52.674 110c-11.389 0-31.169 11.054-39.001 21.796-4.839 6.637-9.23 15.796-10.548 22.003C.866 164.437 2.164 185.557 5.473 192c.706 1.375 1.901 3.85 2.655 5.5 3.04 6.648 7.629 12.039 24.123 28.341 17.733 17.526 21.349 20.499 30.141 24.777 14.974 7.286 37.963 7.257 52.505-.066 19.635-9.888 30.994-26.443 33.657-49.052.891-7.571 4.34-14.397 8.626-17.074 1.826-1.14 5.795-3.658 8.82-5.595 17.307-11.082 24.662-27.691 18.984-42.873-1.237-3.31-3.765-8.534-5.617-11.609-1.852-3.075-3.367-6.062-3.367-6.637 0-.575 5.951-7.056 13.224-14.401 10.533-10.637 14.041-13.575 17.241-14.436 5.333-1.436 8.335-3.522 19.535-13.577 3.025-2.716 8.875-7.75 13-11.187 11.907-9.921 14.116-12.144 15.603-15.702 1.947-4.662 1.715-13.123-.491-17.909-2.611-5.662-24.695-27.03-28.888-27.951-1.76-.386-3.458-1.118-3.772-1.626-.989-1.601-6.779-.8-11.452 1.584m2.023 4.799c-2.689.923-7.296 5.728-20.326 21.194-14.626 17.36-16.795 20.375-16.433 22.844.379 2.585-2.449 5.713-30.976 34.25C121.621 108.269 112.266 117 110.635 117c-6.051 0-16.109 8.073-19.149 15.367-1.991 4.781-2.097 15.237-.2 19.766 6.087 14.528 25.029 20.393 38.036 11.777 5.08-3.365 10.337-10.81 11.284-15.981.518-2.829 6.068-8.89 31.694-34.617 27.663-27.773 31.349-31.132 33.654-30.671 2.191.438 5.121-1.606 19.068-13.301 21.341-17.897 24.53-21.059 25.769-25.545 1.977-7.16.174-10.494-12.648-23.387-14.296-14.375-17.593-16.029-26.12-13.102m-2.229 15.944c-23.19 26.966-22.544 26.096-22.024 29.639.476 3.239-.494 4.324-32.372 36.213l-32.863 32.875 6.458 6.516 6.458 6.516 33.163-33.108c32.091-32.039 33.264-33.087 36.264-32.428 2.811.618 3.964-.043 12.361-7.089C235.744 46.859 241 41.856 241 39.765c0-1.261-3.935-6.054-10.19-12.41-12.652-12.857-13.369-12.997-21.016-4.105m1.494 6.5C199.44 43.526 194 50.777 194 52.795c0 4.324-2.359 7.798-12.291 18.094-5.629 5.836-13.829 14.636-18.222 19.554-8.884 9.948-15.903 16.752-25.237 24.465-6.432 5.315-7.308 6.969-4.798 9.052 2.431 2.017 5.1.302 12.735-8.181 6.157-6.843 15.541-16.241 25.24-25.279 1.181-1.1 7.811-7.513 14.734-14.25C195.876 66.795 199.357 64 201.414 64c3.929 0 9.214-3.052 17.086-9.87 3.85-3.334 8.681-7.314 10.736-8.846 6.137-4.574 5.943-5.554-2.857-14.405C222.072 26.545 218.22 23 217.82 23c-.399 0-3.339 3.038-6.532 6.75m-78.205 49.615c.23.2 1.542.9 2.917 1.555 2.357 1.122 2.389 1.102.559-.365-1.593-1.276-4.848-2.391-3.476-1.19m-26.208 50.074c-7.905 5.372-9.211 16.692-2.678 23.225 6.445 6.444 17.24 6.269 22.712-.37 4.946-6 4.809-6.448-4.989-16.32-4.898-4.936-9.479-8.974-10.181-8.974-.701 0-2.89 1.098-4.864 2.439m1.176 6.318c-1.613 1.307-2.185 2.896-2.231 6.198-.052 3.754.424 4.873 3.075 7.243 3.893 3.478 7.964 3.646 10.963.453 2.703-2.878 2.024-5.196-3.34-11.401-4.072-4.711-5.286-5.068-8.467-2.493m-55.978 18.878c-4.218 5.361-3.708 6.122 20.148 30.064C92.98 205.534 94.678 207 98.046 207c4.377 0 7.954-3.334 7.954-7.413 0-2.307-3.896-6.621-22.744-25.186C63.206 154.654 60.135 152 57.329 152c-2.248 0-3.793.774-5.256 2.635m1.582.194c-3.999 4.418-2.815 6.177 18.595 27.622 11.138 11.156 21.465 21.055 22.951 21.999 3.245 2.061 6.022 1.385 8.245-2.008 1.554-2.371 1.494-2.664-1.356-6.711-3.285-4.663-36.823-38.197-40.98-40.974-3.343-2.234-5.387-2.214-7.455.072"/><path fill="#1976D2" fill-opacity=".44" fill-rule="evenodd" d="M214 .875c0 .481-1.41 1.157-3.133 1.502-3.156.631-8.104 5.136-14.867 13.534-1.925 2.39-8.309 9.947-14.187 16.793-6.669 7.767-10.946 13.641-11.374 15.622-.378 1.746-1.624 4.524-2.768 6.174-1.144 1.65-14.355 15.237-29.357 30.193-25.68 25.6-27.61 27.298-32.942 28.979-17.022 5.366-25.363 25.275-17.528 41.837 3.235 6.837 8.242 11.691 15.591 15.113 6.962 3.242 17.986 3.321 24.483.175 5.314-2.572 12.171-9.287 14.294-13.997a8240.48 8240.48 0 0 1 3.388-7.502c1.296-2.867 10.684-13.066 29.554-32.111 24.811-25.041 28.142-28.052 32.409-29.298 4.226-1.234 15.304-9.633 25.937-19.663 1.1-1.038 5.47-4.682 9.711-8.098 9.946-8.01 11.855-10.76 12.513-18.025.869-9.582-.544-12.105-14.711-26.275-10.256-10.259-13.369-12.804-16.341-13.362C222.652 2.087 221 1.377 221 .889 221 .4 219.425 0 217.5 0s-3.5.394-3.5.875m-2.5 6.111c-2.885 1.432-8.601 7.467-20.5 21.646-14.127 16.833-16.5 20.142-16.5 23.006 0 3.054-2.654 6.001-30.413 33.773-25.76 25.772-30.962 30.528-34 31.083-1.973.36-5.438 1.729-7.7 3.042-14.914 8.657-17.813 28.88-5.854 40.839 4.572 4.573 13.077 8.625 18.101 8.625 5.58 0 13.673-3.241 17.961-7.195 4.633-4.27 8.404-10.942 8.406-14.871.001-1.859 7.3-9.73 30.897-33.318 28.039-28.03 31.133-30.825 33.477-30.237 2.258.567 5.125-1.478 22.853-16.3 11.15-9.322 21.059-18.285 22.022-19.918 2.756-4.676 2.287-11.137-1.143-15.761-5.061-6.824-22.467-23.262-26.325-24.86-4.845-2.007-6.467-1.943-11.282.446m-9.657 26.3c-12.447 14.842-13.648 16.618-13.551 20.044.104 3.643-.899 4.766-32.324 36.202l-32.431 32.442 5.918 5.981c4.52 4.567 6.226 5.725 7.221 4.899.716-.594 1.012-1.549.658-2.122-.353-.572-.175-.752.396-.399.572.353 15.035-13.354 32.142-30.461 29.942-29.943 31.224-31.084 34.365-30.608 2.985.452 4.539-.57 18.263-12.02C238.095 44.232 241 41.484 241 39.74c0-2.041-21.34-22.74-23.442-22.739-1.433.001-6.205 4.945-15.715 16.285m13.029-8.404c-.755 1.036-5.742 7.036-11.084 13.334-7.994 9.426-9.834 12.219-10.406 15.796-.737 4.609-1.965 6.147-20.339 25.475-19.694 20.717-28.435 29.46-34.095 34.099-6.247 5.121-8.031 8.404-5.937 10.927 2.509 3.024 2.603 2.956 18.158-13.121 12.056-12.46 43.271-43.003 46.216-45.22 1.587-1.195 4.124-2.172 5.638-2.172 3.334 0 11.7-5.482 20.352-13.337a135.308 135.308 0 0 1 6.423-5.405c6.398-4.983 6.292-5.618-2.422-14.383-4.306-4.331-8.572-7.875-9.481-7.875-.908 0-2.268.847-3.023 1.882M135 90c0 .55.477 1 1.059 1s.781-.45.441-1-.816-1-1.059-1-.441.45-.441 1m-26.17 39.047c-10.658 5.572-11.549 19.14-1.686 25.667 3.258 2.156 4.66 2.467 9.366 2.077 6.128-.508 10.293-3.488 12.574-8.995 1.212-2.924 1.097-3.1-7.677-11.818l-8.907-8.85-3.67 1.919m-.379 6.241c-1.719 1.479-2.762 3.611-3.138 6.415-.499 3.724-.217 4.547 2.485 7.249 5.219 5.219 14.202 3.543 14.202-2.65 0-2.247-7.123-11.752-9.486-12.658-.818-.314-2.646.426-4.063 1.644"/></svg>