<svg xmlns="http://www.w3.org/2000/svg" width="256" height="256"><path fill="#1976D2" fill-opacity=".016" fill-rule="evenodd" d="M0 128.004v128.004l128.25-.254 128.25-.254.254-127.75L257.008 0H0v128.004m.485.496c0 70.4.119 99.053.265 63.672.146-35.38.146-92.98 0-128C.604 29.153.485 58.1.485 128.5"/><path fill="#1976D2" fill-opacity=".067" fill-rule="evenodd" d="M61.393 90.765C59.706 91.885 50 103.797 50 104.748c0 .46-1.913 2.701-4.25 4.98-4.018 3.918-4.386 4.068-6.75 2.744-1.375-.771-4.155-1.417-6.179-1.437-3.646-.035-5.946 1.661-12.071 8.897-.962 1.138-2.733 2.068-3.934 2.068-4.406 0-10.962 4.16-13.929 8.84-3.142 4.954-3.92 12.322-1.741 16.476 2.191 4.175 8.997 11.618 13.941 15.248 4.856 3.565 5.154 3.642 12.533 3.27 7.507-.379 7.589-.414 11.9-4.975 2.978-3.153 4.543-5.812 4.988-8.477.99-5.931 1.19-6.271 5.005-8.522 5.933-3.501 8.11-10.302 5.059-15.81-1.734-3.132-.242-5.654 5.725-9.677 2.312-1.558 7.016-5.259 10.453-8.225 7.893-6.81 8.058-8.626 1.393-15.291-4.69-4.69-7.968-5.938-10.75-4.092m-3.643 7.838c-2.612 3.049-4.75 6.102-4.75 6.783C53 107.156 33.586 126 31.763 126c-3.958 0-5.656 9.143-2.172 11.69 3.788 2.77 11.409.746 11.409-3.03C41 133.202 60.117 114 61.568 114 63.416 114 74 103.889 74 102.123c0-2.344-7.122-9.13-9.542-9.093-1.114.017-4.006 2.419-6.708 5.573m1.712 1.139c-2.179 2.607-3.823 5.161-3.654 5.674.17.513-4.231 5.488-9.78 11.056L35.94 126.595l2.321 2.181 2.322 2.181 9.458-9.531c5.203-5.241 10.85-10.199 12.55-11.017 1.7-.817 4.601-3.044 6.446-4.948L72.392 102 69 98.5c-1.866-1.925-3.884-3.5-4.484-3.5-.601 0-2.875 2.134-5.054 4.742m1.853 2.336c-1.548 2.242-5.033 6.855-7.743 10.25l-4.929 6.172 4.929-4.642c2.71-2.554 6.278-5.357 7.928-6.23 1.65-.873 4.074-2.506 5.386-3.628 2.306-1.972 2.326-2.108.595-4.021-2.465-2.723-2.952-2.557-6.166 2.099m32.959 9.628c-1.131.987-2.751 3.819-3.601 6.294-.85 2.475-3.386 9.622-5.637 15.883-3.83 10.655-3.992 11.534-2.541 13.75 2.795 4.265 7.519 2.195 9.057-3.97.645-2.584 1.003-2.781 4.026-2.214 2.026.38 4.699.044 6.869-.863l3.553-1.484v2.838c0 1.561.846 3.883 1.88 5.16 1.686 2.082 2.835 2.35 11.133 2.596l9.253.274 3.867-3.867c2.127-2.127 3.867-3.306 3.867-2.62 0 .686.933 2.433 2.073 3.882 1.6 2.035 2.953 2.635 5.941 2.635 2.127 0 4.147-.451 4.488-1.003.414-.67 1.241-.67 2.493 0 1.03.552 3 1.003 4.376 1.003 2.266 0 2.453.308 1.976 3.25-1.107 6.822 5.868 10.888 13.058 7.611 2.96-1.348 4.04-3.536 9.53-19.311 4.355-12.513 4.721-16.125 1.815-17.944-2.945-1.844-5.041.497-8.25 9.218-3.745 10.174-5.087 10.826-1.622.787 2.159-6.255 2.345-7.637 1.214-9-1.505-1.814-5.634-2.162-6.625-.558-1.528 2.473-2.967-.021-2.967-5.145 0-5.185-.116-5.421-2.81-5.73-3.588-.412-5.089.874-6.494 5.56-.675 2.251-2.038 4.164-3.394 4.762-1.247.55-2.781 2.042-3.409 3.315-1.141 2.313-1.149 2.309-5.697-2.174-3.379-3.331-5.098-4.349-6.657-3.941-2.679.701-4.137 3.425-3.85 7.192.222 2.918-3.858 13.108-5.248 13.108-.395 0 .346-2.588 1.647-5.75 4.339-10.551 3.084-12.59-7.438-12.084l-6.943.334.095-3.273c.132-4.516-3.017-7.404-9.003-8.258-2.639-.376-5.512-.993-6.384-1.37-.934-.405-2.43.05-3.641 1.107m101.43-.604c-2.258 1.319-5.326 8.224-10.128 22.801-3.05 9.257-3.556 11.845-2.688 13.75 2.137 4.691 8.292 2.358 9.61-3.642.628-2.862.85-2.979 4.543-2.389 2.904.465 4.732.119 7.26-1.372 3.366-1.986 3.383-1.986 4.616-.012.93 1.49 1.935 1.842 4.054 1.418 2.327-.466 2.738-.26 2.362 1.178-.256.978.657 2.942 2.08 4.477 2.283 2.464 3.207 2.735 9.311 2.727 3.727-.004 8.284.014 10.126.041 1.843.027 4.129-.655 5.079-1.515.951-.86 2.593-1.571 3.65-1.58 1.056-.009 3.721-1.034 5.921-2.277 3.778-2.134 4.017-2.549 4.302-7.483.289-4.988.189-5.224-2.2-5.224-1.376 0-2.955.787-3.509 1.75-.754 1.312-.862.83-.431-1.927.477-3.043.14-4.112-1.957-6.209-5.635-5.635-13.687-4.083-17.455 3.363-1.238 2.446-2.25 3.916-2.25 3.267 0-1.501-8.77-10.551-11.75-12.125-1.238-.654-2.25-1.779-2.25-2.499 0-2.397-4.005-4.978-8.781-5.661-2.596-.371-5.394-.951-6.219-1.29-.825-.338-2.308-.143-3.296.433m-101.152 3.179c-2.757 4.207-11.43 31.141-10.422 32.366 1.846 2.244 4.632.273 5.872-4.153l1.211-4.327 5.144.521c4.223.429 5.618.146 7.801-1.583 2.83-2.241 6.842-12.373 6.842-17.276 0-3.557-3.817-6.23-8.017-5.613-1.788.262-3.471-.099-4.124-.886-1.566-1.887-2.597-1.66-4.307.951m101.037-.048c-2.024 3.101-11.585 30.965-10.967 31.964.273.442 1.351.803 2.396.803 1.372 0 2.385-1.367 3.649-4.924 1.47-4.14 2.023-4.777 3.475-4 3.453 1.848 8.821 1.067 11.339-1.65 2.482-2.678 6.519-13.204 6.519-16.998 0-2.998-2.453-4.771-6.902-4.986-2.059-.1-4.708-.698-5.887-1.329-1.823-.976-2.363-.809-3.622 1.12m-169.235 2.113c-1.57 1.84-3.304 4.095-3.854 5.011-.55.917-3.327 2.261-6.17 2.987-7.043 1.8-10.154 4.056-12.392 8.984-3.77 8.304-1.602 14.964 7.763 23.84 6.492 6.155 12.085 8.463 17.633 7.278 7.444-1.591 11.872-6.377 13.152-14.218.486-2.977 1.47-4.797 3.246-6 5.858-3.972 8.269-7.016 8.236-10.401-.017-1.83-.679-4.183-1.471-5.228-1.295-1.712-1.38-1.407-.851 3.059l.587 4.96-5.122 4.289c-2.968 2.485-5.359 5.404-5.686 6.941-1.686 7.93-3.53 11.024-7.8 13.092-7.723 3.738-13.612 2.168-21.515-5.735-5.969-5.968-8.11-9.906-8.108-14.905.003-7.607 6.147-14.3 13.127-14.3 2.745 0 6.735-3.226 10.391-8.403 2.103-2.98 5.263-3.629 10.48-2.155 2.406.68 2.427.647.559-.868-1.068-.866-3.609-1.574-5.647-1.574-2.966 0-4.274.667-6.558 3.346m130.657 1.125c-.547 1.44-1.265 3.693-1.595 5.007-.364 1.451-1.743 2.789-3.508 3.404-3.051 1.064-3.979 3.118-1.408 3.118 1.923 0 1.89 1.375-.169 6.967-1.907 5.176-4.035 8.033-5.986 8.033-1.708 0-1.688-.776.155-6 2.236-6.338 1.941-7.822-1.922-9.664-1.882-.898-3.649-2.501-3.927-3.563-.353-1.349-1.206-1.832-2.828-1.602-2.017.286-2.405 1.055-2.945 5.829-.972 8.606-4.397 15-8.033 15-2.352 0-2.337-.204.674-9.055 1.385-4.073 2.337-7.879 2.114-8.458-.222-.579-3.106-1.128-6.409-1.22-6.971-.193-7.712.397-10.964 8.733-3.289 8.431-3.278 10.287.074 12.483 1.887 1.237 2.953 1.313 5.575.399 2.401-.837 3.534-.839 4.367-.006 3.792 3.792 11.694-1.165 14.46-9.071 2.925-8.358 7.191-7.537 4.654.896-2.118 7.034 1.422 10.842 7.817 8.41 1.828-.695 3.568-.645 5.711.164 2.365.893 3.829.882 6.29-.048 2.121-.8 3.545-.874 4.2-.219.546.546 2.282.992 3.859.992 2.506 0 2.783.284 2.196 2.25-.944 3.165-3.327 6.75-4.486 6.75-1.276 0-1.26-1.707.023-2.5.55-.34 1-1.52 1-2.622 0-1.659-.56-1.951-3.25-1.691-2.808.27-3.291.728-3.549 3.364-.598 6.115 6.794 8.93 11.355 4.324 1.42-1.434 4.298-8.016 7.263-16.614 4.161-12.062 4.695-14.419 3.496-15.414-2.095-1.739-3.686.437-6.329 8.653-2.596 8.069-3.516 9.5-6.108 9.5-2.449 0-2.374-1.192.628-10.019 1.563-4.593 2.153-7.722 1.568-8.307-1.925-1.925-3.927.377-6.095 7.004-2.532 7.742-5.269 11.322-8.653 11.322-1.873 0-2.324-.535-2.316-2.75.017-4.33 4.136-11.697 6.749-12.07 2.551-.363 3.097-3.18.616-3.18-1.318 0-1.486-.614-.888-3.25 1.259-5.547 1.101-7.17-.734-7.542-1.146-.232-2.09.547-2.742 2.263m-129.484 3.486c-2.898 4.59-4.691 5.726-10.514 6.657-2.912.466-5.298 1.738-7.625 4.065-6.197 6.196-4.262 14.853 5.233 23.418C19.778 159.748 22.37 161 26.84 161c3.772 0 4.946-.55 8.278-3.882 3.158-3.158 3.882-4.597 3.882-7.712 0-3.355.682-4.464 5.5-8.948 3.313-3.083 5.5-5.958 5.5-7.229 0-3.388-1.657-3.476-4.167-.22-7.054 9.145-6.868 8.991-10.845 8.991-8.963 0-13.396-9.833-7.301-16.195 1.478-1.543 3.2-2.805 3.826-2.805 1.203 0 5.487-4.149 5.487-5.314 0-.378-1.569-.686-3.487-.686-2.975 0-3.855.582-5.986 3.957m72.29-1.928c-.925.547-2.625 3.516-3.778 6.596-2.34 6.254-1.673 8.375 2.634 8.375 2.93 0 5.578-5.3 5.73-11.469.104-4.239-1.399-5.387-4.586-3.502m99.904.727c-2.306 2.548-4.873 10.19-4.168 12.411.393 1.238 1.55 1.833 3.565 1.833 2.497 0 3.246-.612 4.586-3.75.88-2.062 1.645-5.55 1.699-7.75.08-3.312-.256-4.051-1.958-4.294-1.131-.162-2.806.536-3.724 1.55m-100.244 2.638c-.862 1.317-1.832 4.017-2.154 6-.459 2.831-.254 3.606.952 3.606 1.434 0 4.725-7.437 4.725-10.678 0-2.093-1.81-1.542-3.523 1.072m101.749-1.144c-1.424 1.746-3.673 9.636-2.953 10.357.918.918 2.764-.571 3.661-2.954 2.515-6.676 2.114-10.864-.708-7.403m12.358 2.614c-.293.474-.476 2.389-.406 4.254.07 1.865-.635 4.864-1.566 6.666-1.67 3.229-1.469 5.216.527 5.216.562 0 1.729-1.8 2.593-4 1.608-4.093 3.22-4.968 5.063-2.747.731.881.629 1.994-.342 3.75-4.081 7.373.664 13.179 8.027 9.824 1.969-.897 2.85-.897 3.747 0 1.827 1.827 7.238 1.381 10.046-.827 1.398-1.1 3.797-2 5.33-2 3.467 0 8.397-4.513 8.397-7.687 0-3.24-1.326-2.885-4.432 1.187-3.325 4.359-6.123 4.77-5.104.75 2.527-9.967 1.263-13.25-5.101-13.25-5.374 0-7.017 1.455-9.301 8.24-2.574 7.646-5.185 11.311-7.441 10.445-1.489-.571-1.457-1.095.354-5.86 1.797-4.73 1.843-5.454.483-7.529-.827-1.263-2.18-2.296-3.006-2.296-.826 0-1.929-1.125-2.452-2.5-.93-2.446-4.288-3.461-5.416-1.636M40.872 125.75c-1.243 1.586-1.208 1.621.378.378 1.666-1.307 2.195-2.128 1.372-2.128-.207 0-.995.787-1.75 1.75m-10.94 4.376c-.839 1.568-.846 2.767-.028 4.563.891 1.955 1.732 2.375 4.252 2.124 4.657-.464 5.868-3.094 2.886-6.268-2.914-3.102-5.589-3.26-7.11-.419m205.545 4.33c-3.353 7.581-3.289 9.77.273 9.36 2.43-.279 2.715-.684 2.448-3.473-.216-2.27.271-3.558 1.732-4.582 2.997-2.099 3.181-6.167.297-6.58-1.908-.274-2.67.572-4.75 5.275m-118.992-3.206c-2.678 7.408-3.18 9.625-2.448 10.809 1.906 3.085 8.045-6.797 6.586-10.6-.685-1.785-3.516-1.928-4.138-.209m31.545 1.3c.027 2.586.163 2.722 1.104 1.104.769-1.324.761-2.159-.03-2.95-.805-.805-1.096-.305-1.074 1.846M32 132.393c0 1.502 2.427 2.846 3.394 1.88.705-.705-1.269-3.273-2.516-3.273-.483 0-.878.627-.878 1.393m128.439-.379c-2.014.764-5.218 8.54-4.014 9.744 1.06 1.06 4.241-2.764 5.376-6.462.624-2.032 1.036-3.777.917-3.879-.12-.101-1.146.168-2.279.597m-44.178 4.487c-.591 1.926-.711 3.277-.266 3.002 1.164-.719 3.05-6.503 2.121-6.503-.429 0-1.264 1.576-1.855 3.501M15 136.97C15 139.333 27.191 152 29.465 152c.879 0 1.871-.713 2.206-1.584.414-1.079-1.582-3.791-6.255-8.5C18.482 134.928 15 133.275 15 136.97m4.81 3.78c3.87 4.874 9.193 9.58 9.964 8.809.668-.668-10.771-12.518-12.108-12.543-.459-.009.506 1.672 2.144 3.734"/><path fill="#1976D2" fill-opacity=".163" fill-rule="evenodd" d="M58.177 94.75c-2.454 2.612-5.921 7-7.703 9.75-4.092 6.312-11.244 12.802-13.256 12.03-1.17-.449-1.252-.276-.372.785.871 1.048.617 1.829-1.108 3.407-1.231 1.127-3.239 2.351-4.462 2.722-3.34 1.012-6.276 5.359-6.276 9.29 0 4.589 4.775 9.266 9.46 9.266 3.166 0 8.54-3.697 8.54-5.876 0-.534 1.176-2.368 2.613-4.076 1.984-2.358 2.928-2.844 3.921-2.02 1.019.846 1.196.655.8-.858-.95-3.634 1.662-3.424 3.2.258.821 1.965 1.708 3.572 1.971 3.572.263 0-.254-1.831-1.149-4.069l-1.628-4.068 3.839-3.932c2.111-2.162 4.217-3.931 4.68-3.931 1.502 0 13.216-10.201 14.558-12.679 1.132-2.089 1.033-2.847-.746-5.725C72.898 95.099 66.347 90 64.016 90c-.757 0-3.384 2.138-5.839 4.75m-.592 3.611C54.513 101.859 52 105.15 52 105.674c0 .822-16.229 16.751-22.75 22.33-1.255 1.073-2.25 3.066-2.25 4.506 0 3.326 4.17 7.49 7.5 7.49 2.717 0 7.5-3.97 7.5-6.225 0-1.642 16.599-18.096 20-19.826 1.375-.699 4.638-3.07 7.25-5.267 6.167-5.186 6.329-8.023.747-13.066C67.796 93.627 65.359 92 64.582 92c-.777 0-3.926 2.862-6.997 6.361m2.499 1.389c-2.239 2.612-4.074 5.192-4.078 5.732-.003.54-4.367 5.36-9.697 10.71-9.628 9.664-9.679 9.741-7.809 11.808l1.883 2.081 9.576-9.541c5.267-5.247 10.244-9.557 11.059-9.578.815-.022 3.732-2.021 6.482-4.444l5-4.406-3.446-3.556C67.158 96.6 65.281 95 64.882 95c-.4 0-2.558 2.138-4.798 4.75m1.717 1c-1.415 1.513-3.261 4.1-4.102 5.75-.842 1.65-5.189 6.766-9.662 11.369-4.473 4.603-7.959 8.542-7.747 8.754.212.212 3.946-3.255 8.297-7.705 4.352-4.449 9.263-8.716 10.913-9.48 1.65-.765 4.567-2.713 6.483-4.328 3.444-2.906 3.461-2.961 1.595-5.024-2.414-2.667-2.69-2.635-5.777.664M30 111.706c-2.486.909-6.102 4.608-7.618 7.794l-1.427 3 1.772-2.446c3.771-5.202 4.901-6.175 8.773-7.548 2.2-.78 3.1-1.402 2-1.383-1.1.019-2.675.282-3.5.583m63.674.763c-.921.921-1.674 2.105-1.674 2.633 0 .527-2.294 7.265-5.097 14.973C81.366 145.297 81.081 149 85.448 149c3.047 0 5.203-2.135 6.05-5.989.628-2.862.85-2.979 4.543-2.389 2.953.473 4.739.116 7.464-1.493l3.583-2.113-.645 3.436c-.539 2.874-.207 3.875 2.032 6.114 2.276 2.276 3.278 2.596 6.69 2.139 2.208-.296 5.283-.096 6.834.445 4.878 1.7 10.077-1.801 13.874-9.343 1.824-3.623 2.875-5.03 2.47-3.307-1.509 6.413-.986 9.649 1.912 11.827 2.382 1.791 3.194 1.917 6 .931 4.659-1.636 13.017.505 11.631 2.981-.636 1.136-.47 2.821.509 5.164 1.784 4.271 6.621 5.674 11.269 3.271 3.946-2.041 3.692-1.488 12.555-27.287 2.031-5.913 1.958-9.387-.196-9.387-.681 0-.643.635.108 1.839 1.592 2.549-8.058 29.609-11.736 32.911-4.71 4.228-11.395 1.818-11.395-4.107 0-1.784.54-3.783 1.2-4.443 3.112-3.112 7.658.408 5.587 4.326-.937 1.772-.884 1.82.519.474 1.855-1.781 3.555-7.65 1.924-6.642-.584.361-2.279.194-3.767-.372-1.925-.732-3.654-.685-5.999.163-2.78 1.005-3.703.924-5.906-.519-2.47-1.618-2.774-1.615-5.598.053-2.804 1.656-3.155 1.661-5.723.091-2.924-1.787-3.381-4.769-1.765-11.524 1.353-5.654-1.69-3.81-4.972 3.013-2.22 4.615-3.929 6.734-6.572 8.149-3.254 1.743-3.836 1.78-6.555.424-2.107-1.051-3.61-1.209-5.115-.538-3.056 1.364-7.148.037-8.407-2.725-.854-1.875-.608-3.794 1.175-9.151 3.069-9.223 7.59-13.217 11.885-10.498.869.55 2.11.455 3.233-.246 1.428-.892 2.158-.805 3.366.403 1.389 1.39 1.292 2.207-.984 8.254-3.751 9.964-3.261 13.206 1.266 8.387 2.717-2.893 5.181-9.814 5.02-14.101-.068-1.818.198-3.827.591-4.464 1.203-1.946 4.58-1.288 5.67 1.104.567 1.244 2.365 3.028 3.996 3.964 4.113 2.361 4.485 4.083 2.114 9.788-1.131 2.721-1.661 5.191-1.179 5.489 2.723 1.684 8.544-11.354 6.141-13.757-1.857-1.857-1.319-3.663 1.287-4.317 1.804-.453 2.901-1.911 4.243-5.644 1.991-5.536 3.698-6.84 5.975-4.562 1.327 1.326 1.318 1.918-.077 5.258-1.927 4.613-1.966 4.184.427 4.81 3.08.805 2.457 3.669-.947 4.349-2.533.507-3.219 1.397-4.89 6.344-2.279 6.75-1.616 9 2.148 7.285 1.764-.804 3.237-3.176 5.244-8.443 1.534-4.029 3.638-8.225 4.675-9.325 1.796-1.905 1.948-1.915 3.209-.221 1.131 1.52.894 2.888-1.627 9.38-2.205 5.679-2.663 7.885-1.811 8.721 1.775 1.742 4.699-2.582 7.106-10.506 1.15-3.787 2.834-7.319 3.742-7.849.935-.546 1.119-.977.424-.995-1.783-.044-3.887 3.67-5.741 10.136-.894 3.117-2.279 6.209-3.079 6.873-2.082 1.728-1.868.109.988-7.478 2.37-6.298 2.389-6.55.629-8.723-1.725-2.131-1.931-2.159-4.323-.592-2.078 1.362-2.815 1.425-4.262.367-1.534-1.122-1.599-1.737-.527-4.985.971-2.944.965-4.016-.03-5.215-2.344-2.824-5.283-1.226-7.835 4.261-1.324 2.846-3.234 5.391-4.245 5.656-2.49.651-3.364 3.338-1.946 5.987.908 1.697.863 3.061-.198 6.127-.752 2.169-1.884 4.116-2.516 4.327-.755.251-.616-.896.404-3.336 1.982-4.746 1.149-8-2.536-9.906-1.603-.829-3.201-2.411-3.552-3.516-.35-1.104-1.808-2.302-3.239-2.661-3.515-.883-6.619 2.759-5.745 6.74.639 2.909-3.784 13.908-5.593 13.908-1.403 0-1.155-1.348 1.587-8.633 2.27-6.031 2.365-6.843.981-8.372-1.149-1.27-2.964-1.643-7.263-1.493-3.153.11-6.481.525-7.397.923-1.435.624-1.593.187-1.142-3.171.463-3.456.163-4.197-2.662-6.575-1.752-1.473-4.162-2.684-5.358-2.69-1.195-.006-3.782-.277-5.749-.603-2.604-.43-4.031-.136-5.25 1.083m100.673-.28c-1.197 1.57-4.342 9.739-8.949 23.244-3.127 9.166-3.272 10.111-1.87 12.25 2.556 3.901 6.65 2.339 8.491-3.24.984-2.983 1.617-3.545 3.83-3.402 5.404.348 7.074-.105 10.28-2.791 1.805-1.512 2.944-2.197 2.53-1.521-1.095 1.791 1.096 5.271 3.319 5.271 1.05 0 2.593-.978 3.43-2.173 1.468-2.095 1.502-2.05.967 1.251-.77 4.745 2.505 8.922 6.998 8.922 1.775 0 3.719-.492 4.32-1.093.79-.79 1.657-.79 3.134 0 3.213 1.72 8.654 1.289 11.446-.907 1.398-1.1 3.674-2 5.058-2s3.86-1.132 5.504-2.515c2.115-1.78 3.137-2.145 3.498-1.25.28.696.545-.452.588-2.551.091-4.375-1.362-7.684-3.373-7.684-.76 0-2.355 1.238-3.546 2.75-1.378 1.75-1.952 2.08-1.579.907 1.75-5.504 1.66-6.405-.943-9.499-2.23-2.65-3.356-3.158-6.992-3.158-6.13 0-9.629 3.208-11.984 10.988-1.017 3.359-2.178 6.31-2.578 6.558-.401.248-.157-1.461.543-3.798 1.519-5.071.566-8.404-2.767-9.671-1.294-.492-3.116-2.061-4.05-3.486-.934-1.425-2.531-2.591-3.55-2.591-1.251 0-2.044-.958-2.443-2.955-.798-3.99-3.901-5.71-11.736-6.502-4.887-.494-6.833-.328-7.576.646M93.69 114.75c-2.944 5.949-10.877 30.321-10.331 31.742.318.83 1.515 1.508 2.661 1.508 1.952 0 2.943-1.537 5.276-8.184.496-1.415 1.053-1.511 3.471-.598 3.622 1.367 7.89.337 10.43-2.517 2.019-2.269 5.662-11.143 6.524-15.892.724-3.985-3.63-8.056-8.196-7.663-1.88.162-3.742-.03-4.138-.426-1.58-1.58-4.409-.572-5.697 2.03m101.919-1.216c-.843.843-1.95 2.981-2.459 4.75-.509 1.769-2.776 8.354-5.038 14.634-4.662 12.944-4.771 13.615-2.371 14.536 2.1.806 5.126-2.541 5.93-6.559.527-2.634.722-2.71 5.687-2.207 4.222.429 5.618.145 7.8-1.583 2.796-2.214 6.842-12.354 6.842-17.144 0-3.689-3.276-6.324-7.954-6.399-2.134-.034-4.218-.4-4.63-.812-1.12-1.121-2.105-.918-3.807.784m-162.796 2.149c.721.289 1.584.253 1.916-.079.332-.332-.258-.568-1.312-.525-1.165.048-1.402.285-.604.604m-4.515 1.543c-2.268 2.929-2.408 4.116-.241 2.052 1.282-1.222 2.084-2.471 1.78-2.774-.304-.304-.996.021-1.539.722m171.922 2.524c-2.803 2.45-5.557 11.139-4.09 12.906 1.401 1.688 4.308 1.737 5.636.094.555-.687 1.826-3.57 2.823-6.405 1.517-4.313 1.597-5.416.49-6.75-1.681-2.025-2.391-2.003-4.859.155m-101.528 0c-1.534 2.701-3.64 11.221-3.114 12.594.749 1.951 3.771 2.19 5.127.406 1.784-2.346 4.486-10.81 3.921-12.282-.578-1.507-5.17-2.063-5.934-.718m-.328 3.922c-2.098 5.021-2.255 8.828-.364 8.828 1.556 0 4.384-4.969 5.547-9.75.574-2.358.362-2.75-1.49-2.75-1.542 0-2.598 1.05-3.693 3.672m102.121-2.422c-3.368 9.317-3.46 9.822-1.888 10.425.845.325 1.881.193 2.302-.292.839-.97 3.101-8.444 3.101-10.249 0-1.542-2.951-1.444-3.515.116m13.077 2.081c-1.361.995-1.682 2.056-1.201 3.972.393 1.563-.004 4.264-.987 6.721-1.145 2.862-1.326 4.424-.596 5.154 1.486 1.486 3.197.126 4.866-3.869.793-1.896 1.984-3.258 2.648-3.027 1.253.436 1.263 1.075.133 8.932-.637 4.438-.519 4.786 2.019 5.943 2.072.944 3.407.96 5.76.072 2.033-.767 3.669-.832 4.864-.193 2.865 1.534 8.382 1.12 10.493-.786 1.067-.963 3.507-1.828 5.424-1.923 4.078-.203 8.015-4.075 8.015-7.883 0-3.327-2.558-3.14-4.205.306-1.546 3.236-6.615 4.747-5.327 1.588 3.719-9.124 2.279-13.338-4.557-13.338-2.223 0-4.857.436-5.852.968-.994.533-3.281 4.622-5.082 9.088-3.011 7.471-5.102 10.152-6.684 8.571-.341-.341.215-3.078 1.236-6.082 1.798-5.287 1.799-5.526.032-7.478-1.004-1.109-2.557-2.248-3.452-2.532-.895-.284-2.073-1.504-2.618-2.711-1.262-2.795-2.596-3.199-4.929-1.493m-190.275.782c-.612.612-3.246 1.511-5.853 1.998-6.265 1.171-11.067 4.934-12.531 9.819-1.909 6.371-.504 10.354 6.166 17.485 9.367 10.013 16.904 11.845 24.038 5.842 3.429-2.886 5.893-7.751 5.893-11.636 0-1.549 1.19-3.409 3.25-5.081 6.094-4.945 7.75-6.749 7.71-8.395-.027-1.114-.491-.815-1.438.926-.769 1.414-3.221 3.834-5.449 5.378-3.883 2.691-6.052 6.904-6.067 11.785-.011 3.175-5.273 7.901-9.7 8.71-5.86 1.072-10.2-.743-16.252-6.795-8.08-8.079-9.811-15.012-5.422-21.71 1.53-2.335 7.966-5.439 11.277-5.439 1.617 0 7.521-3.877 6.041-3.967-.303-.018-1.051.468-1.663 1.08M7.23 126.551c-1.218.853-2.698 2.541-3.289 3.75L2.866 132.5l1.817-2.22c.999-1.221 2.717-2.895 3.817-3.719 2.652-1.986 1.564-1.994-1.27-.01M31.2 129.2c-1.642 1.642-1.51 5.298.245 6.754 1.912 1.587 5.584.972 6.919-1.159.841-1.341.559-2.248-1.322-4.25-2.647-2.818-4.047-3.14-5.842-1.345m206.312.781c-1.878 3.039-4.426 12.505-3.59 13.341 1.893 1.893 4.103-.143 3.836-3.533-.203-2.565.226-3.482 1.992-4.265 2.98-1.322 3.227-6.524.309-6.524-1.068 0-2.214.442-2.547.981m-205.089 1.358c-.751 1.957.244 3.661 2.136 3.661 1.88 0 1.851-2.415-.047-3.99-1.203-.998-1.603-.935-2.089.329m84.838-.131c-1.474 1.807-3.712 9.674-2.964 10.422 1.443 1.444 3.482-.768 4.693-5.094 1.364-4.874.379-7.912-1.729-5.328m41.224 1.042c-3.4 9.404-3.568 10.75-1.341 10.75 1.063 0 3.367-3.574 5.318-8.25l1.565-3.75h-2.545c-1.4 0-2.748.563-2.997 1.25m80.182-.583c-.956.955-.822 2.333.226 2.333.491 0 1.152-.675 1.469-1.5.585-1.524-.481-2.048-1.695-.833m-122.578 4.43c-1.568 5.233-.589 6.345 1.398 1.589 1.709-4.092 1.898-5.686.671-5.686-.463 0-1.394 1.844-2.069 4.097m-61.689-.49c-.357 1.041-3.067 4.189-6.024 6.995-4.241 4.025-5.349 5.713-5.25 8 .118 2.702.2 2.637 1.205-.969.774-2.773 2.144-4.539 4.845-6.244 3.587-2.265 7.591-7.955 6.421-9.125-.302-.303-.841.302-1.197 1.343M15 137.383c0 .644 3.148 4.295 6.996 8.113 6.32 6.271 7.145 6.792 8.546 5.391 1.401-1.401 1.348-1.785-.552-3.969-2.086-2.399-2.094-2.399-.982-.113 2.457 5.05.104 3.962-6.779-3.136-3.976-4.101-7.229-6.929-7.229-6.286m4.059-.133c.792.688 2.292 2.15 3.332 3.25s1.534 1.325 1.098.5c-1.324-2.503-3.738-5-4.835-5-.57 0-.388.563.405 1.25m216.02 4.333c.048 1.165.285 1.402.604.605.289-.722.253-1.585-.079-1.917-.332-.332-.568.258-.525 1.312M2.004 146.316C1.984 150.516 16.436 165 20.646 165c.41 0-1.255-1.292-3.7-2.87-5.14-3.318-9.852-8.135-12.843-13.13-1.152-1.925-2.097-3.133-2.099-2.684m39.539 9.547c-.351 1.108-2.208 3.392-4.126 5.075-3.665 3.218-3.434 4.163.366 1.501 2.323-1.626 5.72-7.269 4.882-8.107-.265-.266-.77.423-1.122 1.531"/><path fill="#1976D2" fill-opacity=".28" fill-rule="evenodd" d="M56.295 98.081c-8.786 10.735-21.324 23.781-25.718 26.759-7.018 4.758-6.825 11.665.434 15.506 4.526 2.394 8.005 1.15 11.346-4.057 3.498-5.451 15.459-17.658 20.143-20.558 6.538-4.047 13.5-11.104 13.5-13.682 0-1.397-1.73-4.042-4.368-6.681-6.333-6.332-8.205-6.001-15.337 2.713m1.953-1.331c-2.166 2.612-4.761 6.1-5.765 7.75-2.916 4.791-16.644 18.474-20.59 20.522-4.847 2.516-6.603 6.704-4.509 10.754 1.695 3.278 3.38 4.224 7.523 4.224 2.628 0 7.093-3.515 7.093-5.584C42 133.251 60.203 115 61.365 115c1.822 0 12.62-9.653 13.235-11.831.525-1.863-.214-3.219-3.679-6.75-5.625-5.731-7.692-5.677-12.673.331m1.502 3.703c-2.062 2.412-3.75 4.994-3.75 5.737 0 .742-4.262 5.594-9.472 10.782-8.989 8.952-9.387 9.526-7.808 11.271 1.59 1.757 2.081 1.429 11.222-7.512 5.257-5.142 10.765-9.945 12.241-10.673 1.475-.728 4.149-2.837 5.941-4.686l3.259-3.363-2.878-3.004c-1.584-1.653-3.357-2.99-3.942-2.972-.585.018-2.75 2.007-4.813 4.42m.796 1.191c-1.95 2.554-3.546 5.09-3.546 5.635 0 .544-4.133 5.205-9.184 10.356-5.052 5.151-8.567 9.365-7.812 9.365.754 0 5.502-4.05 10.549-9 5.048-4.95 9.801-9.019 10.562-9.042.762-.023 3.149-1.599 5.306-3.503l3.921-3.462-2.345-2.497C66.707 98.123 65.3 97 64.871 97c-.428 0-2.375 2.09-4.325 4.644m133.512 11.247c-1.596 2.983-1.269 3.855.499 1.332 1.574-2.248 4.856-2.982 5.885-1.317.308.498 1.452.673 2.543.388 3.469-.908 6.924.629 8.569 3.811.875 1.691 1.353 3.695 1.063 4.451-.402 1.047.168 1.237 2.379.795 2.456-.491 3.003-.214 3.517 1.784.343 1.33 2.004 3.021 3.798 3.865 2.74 1.289 3.172 1.993 3.067 5-.066 1.925-.479 5.3-.916 7.5-.694 3.493-.604 3.843.709 2.763.827-.681 2.721-4.341 4.209-8.134 3.097-7.893 4.997-9.991 9.746-10.762 6.862-1.114 10.963 5.356 7.374 11.633-1.835 3.21-1.841 4-.03 4 .809 0 2.487-1.375 3.73-3.057 1.467-1.985 2.88-2.894 4.03-2.593.973.254 1.77.055 1.77-.444 0-.498-1.136-.906-2.525-.906-1.773 0-2.808.744-3.475 2.5-.523 1.375-1.4 2.5-1.95 2.5-.661 0-.669-.872-.025-2.565 2.553-6.717-.762-12.435-7.21-12.435-6.488 0-10.123 4.04-13.777 15.317-1.688 5.208-2.389 4.023-.904-1.528 1.437-5.375.83-7.329-2.955-9.501-1.571-.902-3.266-2.573-3.767-3.714-.502-1.141-1.833-2.206-2.959-2.367-1.18-.169-2.503-1.5-3.123-3.144-1.491-3.95-4.782-5.727-12.022-6.494-5.52-.584-6.306-.441-7.25 1.322m-6.391 17.17c-5.199 14.444-5.57 18.24-1.835 18.769 2.941.417 5.77-2.09 6.505-5.764.536-2.679.797-2.806 4.865-2.358 3.459.381 5.03-.026 8.048-2.087 3.492-2.385 3.75-2.428 3.75-.626 0 4.721 5.893 4.069 7.446-.824.405-1.277.973-2.086 1.261-1.797.288.288.027 1.95-.581 3.693-2.394 6.869 2.612 12.165 9.386 9.929 2.41-.795 3.963-.812 5.373-.057 3.037 1.625 6.579 1.27 9.388-.939 1.398-1.1 3.506-2 4.684-2 2.972 0 7.778-2.637 9.013-4.945 1.684-3.146 1.213-3.038-2.37.545-1.882 1.882-4.42 3.4-5.684 3.4-1.257 0-4.231.942-6.611 2.094-3.533 1.711-4.876 1.903-7.326 1.049-1.65-.576-5.198-.786-7.883-.468-4.465.529-5.03.355-6.591-2.027-1.561-2.383-1.578-2.985-.194-7.048.833-2.443 1.253-4.702.935-5.021-1.251-1.25-2.28-.433-3.682 2.921-1.036 2.48-2.096 3.5-3.638 3.5-1.932 0-2.097-.364-1.474-3.25.387-1.787.896-5.05 1.131-7.25l.429-4-1.563 3.382c-.859 1.859-1.328 3.991-1.042 4.738.287.746.191 1.249-.212 1.118-.404-.131-1.841.792-3.194 2.051-3.189 2.965-6.642 3.785-10.234 2.429-2.418-.913-2.975-.817-3.471.598-2.532 7.213-3.297 8.322-5.525 8.006-3.552-.504-3.253-3.433 1.718-16.792 2.52-6.774 4.44-12.744 4.265-13.268-.175-.524-2.464 5.011-5.087 12.299m10.966-7.724c-3.387 8.104-3.165 12.029.646 11.471 1.527-.223 2.758-1.93 4.469-6.194 2.679-6.678 2.409-8.614-1.203-8.614-1.909 0-2.855.807-3.912 3.337m.731 1.335c-2.091 5.004-2.255 8.828-.377 8.828 1.754 0 3.919-4.148 4.711-9.026.799-4.922-2.253-4.783-4.334.198m-168.329 6.262c-1.406 2.628-1.306 3.652.536 5.495 2.012 2.011 3.865 1.992 5.918-.061 1.51-1.509 1.426-1.848-1.115-4.5-3.244-3.385-3.96-3.511-5.339-.934m206.286.816c-.339.963-1.225 3.267-1.969 5.122-1.957 4.882-1.783 8.362.398 7.922 1.308-.264 1.673-1.152 1.444-3.514-.24-2.476.247-3.523 2.25-4.835 3.209-2.103 3.562-6.445.525-6.445-1.118 0-2.309.787-2.648 1.75m-206.015.895c-.85 2.214 2.514 4.749 4.317 3.253 1.011-.84 1.031-1.479.092-2.983-1.468-2.35-3.562-2.478-4.409-.27m206.729.289c-1.503 2.808-1.286 3.271.965 2.066 1.1-.589 2-1.73 2-2.535 0-2.088-1.744-1.812-2.965.469M235 141.059c0 1.132.43 1.793.956 1.468.526-.325.703-1.252.393-2.059-.793-2.067-1.349-1.824-1.349.591"/></svg>